<svg width="60" height="60" viewBox="0 0 60 60" fill="none" xmlns="http://www.w3.org/2000/svg">
<g id="ph:telegram-logo-thin">
<path id="Vector" d="M54.907 6.84843C54.7453 6.70867 54.5485 6.6158 54.3378 6.57986C54.1271 6.54392 53.9106 6.56628 53.7117 6.64453L6.21327 25.2328C5.72906 25.4208 5.31907 25.761 5.04508 26.2023C4.7711 26.6435 4.64797 27.1619 4.69425 27.6792C4.74054 28.1966 4.95373 28.6849 5.3017 29.0705C5.64966 29.4561 6.11354 29.7182 6.62342 29.8172L19.6875 32.3812V46.875C19.6874 47.4357 19.8549 47.9837 20.1686 48.4485C20.4822 48.9133 20.9276 49.2738 21.4476 49.4836C21.7823 49.6178 22.1394 49.687 22.5 49.6875C22.8774 49.6866 23.2507 49.6098 23.5978 49.4617C23.9449 49.3135 24.2586 49.097 24.5203 48.825L31.0828 42.0281L41.1609 50.8664C41.6718 51.317 42.3289 51.5668 43.0101 51.5695C43.3077 51.5683 43.6033 51.5217 43.8867 51.4313C44.3507 51.2844 44.768 51.0183 45.0971 50.6597C45.4261 50.3011 45.6552 49.8624 45.7617 49.3875L55.282 7.99687C55.3297 7.78944 55.32 7.57293 55.2539 7.3706C55.1879 7.16827 55.0679 6.98776 54.907 6.84843ZM6.56249 27.5109C6.54874 27.3976 6.57428 27.2829 6.63484 27.1861C6.69541 27.0893 6.78734 27.0161 6.8953 26.9789L47.8289 10.9594L20.407 30.6117L6.98671 27.9773C6.87295 27.9607 6.7685 27.9051 6.69115 27.82C6.61379 27.735 6.56832 27.6258 6.56249 27.5109ZM23.1726 47.5219C23.043 47.6554 22.8766 47.7473 22.6946 47.7859C22.5126 47.8246 22.3231 47.8082 22.1505 47.7388C21.9778 47.6694 21.8297 47.5502 21.725 47.3964C21.6203 47.2426 21.5637 47.0611 21.5625 46.875V33.6797L29.6672 40.7812L23.1726 47.5219ZM43.9336 48.9609C43.8973 49.1201 43.8201 49.267 43.7097 49.3872C43.5992 49.5074 43.4593 49.5966 43.3037 49.6461C43.1481 49.6956 42.9824 49.7036 42.8228 49.6693C42.6632 49.6351 42.5153 49.5597 42.3937 49.4508L22.132 31.6828L52.9992 9.5625L43.9336 48.9609Z" fill="white"/>
</g>
</svg>
