<svg width="40" height="40" viewBox="0 0 40 40" fill="none" xmlns="http://www.w3.org/2000/svg">
<path d="M11.4999 34.3333C13.9999 35.8333 16.9999 36.6667 19.9999 36.6667C29.1666 36.6667 36.6666 29.1667 36.6666 20C36.6666 10.8333 29.1666 3.33334 19.9999 3.33334C10.8333 3.33334 3.33325 10.8333 3.33325 20C3.33325 23 4.16659 25.8333 5.49992 28.3333L4.06659 33.8433C3.99264 34.1278 3.99522 34.4267 4.07408 34.7099C4.15294 34.993 4.30526 35.2502 4.51561 35.4555C4.72595 35.6608 4.98684 35.8068 5.2718 35.8787C5.55677 35.9506 5.85569 35.9459 6.13825 35.865L11.4999 34.3333Z" stroke="white" stroke-width="1.3" stroke-miterlimit="10" stroke-linecap="round" stroke-linejoin="round"/>
<path d="M27.5 24.7467C27.5 25.0167 27.44 25.295 27.3117 25.565C27.1807 25.844 27.0088 26.1018 26.8017 26.33C26.4333 26.735 26.0283 27.0267 25.5683 27.215C25.1183 27.4033 24.63 27.5 24.105 27.5C23.3383 27.5 22.52 27.32 21.655 26.9533C20.7405 26.5569 19.8739 26.0581 19.0717 25.4667C18.1991 24.8293 17.3757 24.1273 16.6083 23.3667C15.8491 22.6035 15.1488 21.7839 14.5133 20.915C13.9294 20.1198 13.4352 19.2623 13.04 18.3583C12.68 17.5 12.5 16.6833 12.5 15.905C12.5 15.395 12.59 14.9083 12.77 14.4583C12.95 14 13.2367 13.58 13.635 13.205C14.115 12.7317 14.64 12.5 15.1967 12.5C15.4067 12.5 15.6167 12.545 15.805 12.635C16 12.725 16.1717 12.86 16.3083 13.055L18.0517 15.5083C18.185 15.695 18.285 15.8683 18.3517 16.0333C18.4183 16.19 18.4567 16.3483 18.4567 16.49C18.4545 16.679 18.3997 16.8637 18.2983 17.0233C18.1826 17.2184 18.0414 17.3972 17.8783 17.555L17.3067 18.1483C17.2669 18.1872 17.2357 18.234 17.215 18.2857C17.1944 18.3373 17.1847 18.3927 17.1867 18.4483C17.1867 18.5067 17.195 18.56 17.21 18.62C17.2317 18.68 17.255 18.725 17.27 18.77C17.4033 19.0183 17.6367 19.34 17.9683 19.73C18.3067 20.12 18.6667 20.5183 19.0567 20.915C19.4633 21.3133 19.8533 21.68 20.2517 22.0183C20.6417 22.3467 20.965 22.5717 21.22 22.7067L21.3567 22.7683C21.4165 22.7897 21.4798 22.7999 21.5433 22.7983C21.6008 22.7996 21.6579 22.7888 21.711 22.7667C21.7641 22.7446 21.812 22.7117 21.8517 22.67L22.4217 22.1067C22.61 21.92 22.79 21.7783 22.9633 21.6867C23.1227 21.5851 23.3077 21.5308 23.4967 21.53C23.6544 21.5323 23.8102 21.5657 23.955 21.6283C24.12 21.695 24.2933 21.7917 24.48 21.92L26.9667 23.6833C27.1468 23.8006 27.2901 23.9664 27.38 24.1617C27.4579 24.3469 27.4987 24.5457 27.5 24.7467Z" stroke="white" stroke-width="1.3" stroke-miterlimit="10"/>
</svg>
