<svg width="40" height="40" viewBox="0 0 40 40" fill="none" xmlns="http://www.w3.org/2000/svg">
<path d="M35.9265 11.995C35.7366 11.2894 35.3647 10.646 34.848 10.1293C34.3313 9.61265 33.688 9.24074 32.9824 9.05083C31.054 8.30583 12.3724 7.94083 6.95238 9.07167C6.24667 9.26164 5.60325 9.63368 5.08655 10.1505C4.56984 10.6674 4.19799 11.3109 4.00821 12.0167C3.13738 15.8358 3.07155 24.0925 4.02988 27.9975C4.21978 28.7031 4.59169 29.3465 5.10839 29.8632C5.62509 30.3799 6.26844 30.7518 6.97405 30.9417C10.7932 31.8208 28.9499 31.9442 33.004 30.9417C33.7097 30.7518 34.353 30.3799 34.8697 29.8632C35.3864 29.3465 35.7583 28.7031 35.9482 27.9975C36.8765 23.8367 36.9424 16.0917 35.9265 11.995Z" stroke="white" stroke-width="1.3" stroke-linecap="round" stroke-linejoin="round"/>
<path d="M25.4724 19.9958L16.7666 15.0033V24.9883L25.4724 19.9958Z" stroke="white" stroke-width="1.3" stroke-linecap="round" stroke-linejoin="round"/>
</svg>
