<svg width="123" height="123" viewBox="0 0 123 123" fill="none" xmlns="http://www.w3.org/2000/svg">
<rect width="123" height="123" fill="black"/>
<path d="M57.102 24.6599L53.9532 24.6599C42.2108 24.6599 33.158 27.8744 26.7948 34.3032C20.366 40.6664 17.1516 49.752 17.1516 61.56C17.1516 68.3168 18.7916 74.516 22.0716 80.1576C25.3516 85.7992 29.8124 90.26 35.454 93.54C41.03 96.82 47.1964 98.46 53.9532 98.46H57.102L57.102 24.6599ZM53.166 95.4096C47.1308 95.4096 41.6204 93.9336 36.6348 90.9816C31.6492 87.964 27.7132 83.864 24.8268 78.6816C21.8748 73.4992 20.3988 67.792 20.3988 61.56C20.3988 50.6704 23.2524 42.3064 28.9596 36.4679C34.6012 30.564 42.67 27.612 53.166 27.612H53.9532L53.9532 95.4096H53.166Z" fill="white"/>
<path d="M102.957 98.46L63.8922 57.4272V98.46H60.645V24.6599H63.8922V51.4248L94.6914 24.6599H99.3162L64.7778 54.18L107.287 98.46H102.957Z" fill="white"/>
</svg>
